# xmcd CD database file
#
# Track frame offsets:
#	150
#	9690
#	21165
#	33390
#	47928
#	58728
#	73125
#	83865
#	95903
#	105898
#	115178
#	128253
#	141778
#	156120
#	168890
#	177345
#	192585
#	201233
#	206953
#	215033
#	227228
#	236300
#	245890
#	252820
#
# Disc length: 3497 seconds
#
# Revision: 0
# Processed by: cddbd v1.5.2PL0 Copyright (c) Steve Scherf et al.
# Submitted via: Feurio! 1.68 - http://www.feurio.com
#
DISCID=5f0da718
DTITLE=Various Artist - Bluegrass at Newport: 1959-1963
DYEAR=1963
DGENRE=
TTITLE0=Flatt and Scruggs - 01 Salty Dog Blues
TTITLE1=Flatt and Scruggs - 02 Before I Met You
TTITLE2=Flatt and Scruggs - 03 Cabin on the Hill
TTITLE3=Flatt and Scruggs - 04 Jimmie Brown, the Newsboy
TTITLE4=New Lost City Ramblers - 05 Train Forty-Five
TTITLE5=New Lost City Ramblers - 06 Pretty Little Miss
TTITLE6=New Lost City Ramblers - 07 Liza Jane
TTITLE7=Logan, New Lost City Ramblers - 08 Jordan Am a Hard Road to Travel
TTITLE8=Country Boys, Wiseman - 09 I Wonder How the Old Folks Are at Home
TTITLE9=Country Boys, Wiseman - 10 Love Letters in the Sand
TTITLE10=Country Boys, Wiseman - 11 Little Footsteps in the Snow
TTITLE11=Ashley, Howard, Price, Watson - 12 Way Downtown
TTITLE12=Ashley, Howard, Price, Watson - 13 Maggie Walker Blues
TTITLE13=Ashley, Howard, Price, Watson - 14 That Girl I Loved in Sunny 
TTITLE13=Tennessee
TTITLE14=Ashley, Howard, Price, Watson - 15 Lee Highway Blues
TTITLE15=Brown, Scruggs - 16 Flint Hill Special
TTITLE16=Brown, Scruggs - 17 Earl's Breakdown
TTITLE17=Brown, Scruggs - 18 Cumberland Gap
TTITLE18=Morris Brothers  - 19 Salty Dog Blues
TTITLE19=Morris Brothers  - 20 You Give Me Your Love and I'll Give You Mine
TTITLE20=McReynolds, McReynolds, Virginia Boys - 21 Border Ride
TTITLE21=McReynolds, McReynolds, Virginia Boys - 22 Gosh, I Miss You All the 
TTITLE21=Time
TTITLE22=McReynolds, McReynolds, Virginia Boys - 23 Dill Pickle Rag
TTITLE23=McReynolds, McReynolds, Virginia Boys - 24 She Left Me Standing on 
TTITLE23=the Mountain
EXTD=
EXTT0=
EXTT1=
EXTT2=
EXTT3=
EXTT4=
EXTT5=
EXTT6=
EXTT7=
EXTT8=
EXTT9=
EXTT10=
EXTT11=
EXTT12=
EXTT13=
EXTT14=
EXTT15=
EXTT16=
EXTT17=
EXTT18=
EXTT19=
EXTT20=
EXTT21=
EXTT22=
EXTT23=
PLAYORDER=
